# xmcd CD database file
#
# Track frame offsets:
#	150
#	12351
#	21962
#	36224
#	51322
#	64687
#	78201
#	100521
#
# Disc length: 1386 seconds
#
# Revision: 0
# Processed by: cddbd v1.5.2PL0 Copyright (c) Steve Scherf et al.
# Submitted via: CDex 1.70beta2
#
DISCID=59056808
DTITLE=Melissa Rose Ziemer - Safe Tonight (Limited Edition UK EP)
DYEAR=2004
DGENRE=Blues
TTITLE0=Safe Tonight
TTITLE1=Sweet Kisses
TTITLE2=Stories
TTITLE3=Laugh in the Rain
TTITLE4=Old Friend
TTITLE5=All I Want Is You
TTITLE6=It;s Been a Long Time
TTITLE7=(Outro)
EXTD=YEAR: 2004
EXTT0=
EXTT1=
EXTT2=
EXTT3=
EXTT4=
EXTT5=
EXTT6=
EXTT7=
PLAYORDER=
